<svg xmlns="http://www.w3.org/2000/svg" id="Capa_1" fill="currentcolor" enable-background="new 0 0 512 512"  viewBox="0 0 512 512" >

<path d="m466 422c-24.813 0-45-20.187-45-45v-152c0-75.387-50.82-139.126-120-158.762v-21.238c0-24.813-20.187-45-45-45s-45
 20.187-45 45v21.238c-69.18 19.635-120 83.375-120 158.762v152c0 24.813-20.187
  45-45 45h-15v30h180v15c0 24.813 20.187 45 45 45s45-20.187
   45-45v-15h180v-30zm-225-377c0-8.271 6.729-15 15-15s15
    6.729 15 15v15.689c-4.942-.447-9.943-.689-15-.689s-10.058.242-15 .689zm15
     45c74.439 0 135 60.561 135 135v137h-270v-137c0-74.439 60.561-135
      135-135zm-136.509 302h273.019c2.258 11.078 6.967 21.275 13.531
       30h-300.082c6.565-8.725 11.274-18.922 13.532-30zm151.509 75c0 8.271-6.729 15-15 15s-15-6.729-15-15v-15h30z"/></svg>