<?xml version="1.0" encoding="iso-8859-1"?>
<!-- Generator: Adobe Illustrator 19.0.0, SVG Export Plug-In . SVG Version: 6.00 Build 0)  -->
<svg fill="currentcolor" version="1.1" id="Capa_1" xmlns="http://www.w3.org/2000/svg" xmlns:xlink="http://www.w3.org/1999/xlink" x="0px" y="0px"
	 viewBox="0 0 477.867 477.867"  xml:space="preserve">
<g>
	<g>
		<path d="M385.246,332.305l-72.653-24.218c-1.738-0.584-3.559-0.883-5.393-0.888H170.667c-1.834,0.004-3.655,0.304-5.393,0.888
			l-72.653,24.218C37.276,350.693-0.053,402.481,0,460.8c0,9.426,7.641,17.067,17.067,17.067H460.8
			c9.426,0,17.067-7.641,17.067-17.067C477.92,402.481,440.591,350.693,385.246,332.305z M35.567,443.733
			c6.272-36.87,32.366-67.276,67.857-79.07l70.007-23.33h131.004l69.973,23.33c35.505,11.784,61.614,42.191,67.891,79.07H35.567z"/>
	</g>
</g>
<g>
	<g>
		<path d="M238.933,0c-56.554,0-102.4,45.846-102.4,102.4v68.267c0.056,56.531,45.869,102.344,102.4,102.4
			c56.531-0.056,102.344-45.869,102.4-102.4V102.4C341.333,45.846,295.487,0,238.933,0z M307.2,170.667
			c0,37.703-30.564,68.267-68.267,68.267s-68.267-30.564-68.267-68.267V102.4c0-37.703,30.564-68.267,68.267-68.267
			S307.2,64.697,307.2,102.4V170.667z"/>
	</g>
</g>
<g>
</g>
<g>
</g>
<g>
</g>
<g>
</g>
<g>
</g>
<g>
</g>
<g>
</g>
<g>
</g>
<g>
</g>
<g>
</g>
<g>
</g>
<g>
</g>
<g>
</g>
<g>
</g>
<g>
</g>
</svg>
