<svg  viewBox="-21 0 512 512" fill="currentcolor" xmlns="http://www.w3.org/2000/svg"><path d="m389.332031 160c-44.09375 0-80-35.882812-80-80s35.90625-80 80-80c44.097657 0 80 35.882812 80 80s-35.902343 80-80 80zm0-128c-26.453125 0-48 21.523438-48 48s21.546875 48 48 48 48-21.523438 48-48-21.546875-48-48-48zm0 0"/><path d="m389.332031 512c-44.09375 0-80-35.882812-80-80s35.90625-80 80-80c44.097657 0 80 35.882812 80 80s-35.902343 80-80 80zm0-128c-26.453125 0-48 21.523438-48 48s21.546875 48 48 48 48-21.523438 48-48-21.546875-48-48-48zm0 0"/><path d="m80 336c-44.097656 0-80-35.882812-80-80s35.902344-80 80-80 80 35.882812 80 80-35.902344 80-80 80zm0-128c-26.453125 0-48 21.523438-48 48s21.546875 48 48 48 48-21.523438 48-48-21.546875-48-48-48zm0 0"/><path d="m135.703125 240.425781c-5.570313 0-10.988281-2.902343-13.910156-8.0625-4.375-7.679687-1.707031-17.453125 5.972656-21.824219l197.953125-112.855468c7.65625-4.414063 17.449219-1.726563 21.800781 5.976562 4.375 7.679688 1.707031 17.449219-5.972656 21.824219l-197.953125 112.851563c-2.496094 1.40625-5.203125 2.089843-7.890625 2.089843zm0 0"/><path d="m333.632812 416.425781c-2.6875 0-5.398437-.683593-7.894531-2.109375l-197.953125-112.855468c-7.679687-4.371094-10.34375-14.144532-5.972656-21.824219 4.351562-7.699219 14.125-10.367188 21.804688-5.972657l197.949218 112.851563c7.679688 4.375 10.347656 14.144531 5.976563 21.824219-2.945313 5.183594-8.363281 8.085937-13.910157 8.085937zm0 0"/></svg>